<svg id="图层_1" data-name="图层 1" xmlns="http://www.w3.org/2000/svg" viewBox="0 0 382.96 128">
    <defs>
        <style>.cls-1{fill:#001147;}.cls-2{fill:#fff;}</style>
    </defs>
    <title>apinto</title>
    <path d="M188.41,37.25h9.68l19.28,50.14h-9.92l-3.92-10.33H183.07L179,87.39h-9.92Zm4.9,13.29-6.73,17.21H200Z"/>
    <path d="M232.27,50.3v4.09a17.4,17.4,0,0,1,5.45-3.78A15.68,15.68,0,0,1,244,49.35a16.22,16.22,0,0,1,12.34,5.48q5.09,5.49,5.08,14.08a19.45,19.45,0,0,1-5.25,13.86,16.55,16.55,0,0,1-12.44,5.57,15.48,15.48,0,0,1-6-1.14,18.16,18.16,0,0,1-5.48-3.73V101H223V50.3Zm9.78,7.64a9.73,9.73,0,0,0-7.3,3,10.78,10.78,0,0,0-2.89,7.83,11.15,11.15,0,0,0,2.89,8,9.66,9.66,0,0,0,7.3,3,9.47,9.47,0,0,0,7.17-3.1,11.08,11.08,0,0,0,2.92-7.91A11,11,0,0,0,249.27,61,9.44,9.44,0,0,0,242.05,57.94Z"/>
    <path d="M272,35a5.69,5.69,0,0,1,4.2,1.77A5.89,5.89,0,0,1,278,41.1a5.83,5.83,0,0,1-1.73,4.24,5.64,5.64,0,0,1-4.15,1.76,5.72,5.72,0,0,1-4.23-1.79A6,6,0,0,1,266.13,41,5.92,5.92,0,0,1,272,35ZM267.39,50.3h9.31V87.39h-9.31Z"/>
    <path d="M284.45,50.3h9.31v3.8a22.17,22.17,0,0,1,5.73-3.71,13.78,13.78,0,0,1,5.26-1,12.71,12.71,0,0,1,9.36,3.85q3.24,3.27,3.23,9.68V87.39h-9.2V71.15a41.65,41.65,0,0,0-.59-8.82A6,6,0,0,0,305.47,59a5.8,5.8,0,0,0-3.65-1.14A6.85,6.85,0,0,0,297,59.76a10.06,10.06,0,0,0-2.8,5.22,41.39,41.39,0,0,0-.41,7.53V87.39h-9.31Z"/>
    <path d="M326.77,36.63h9.31V50.3h5.52v8h-5.52V87.39h-9.31V58.31H322v-8h4.77Z"/>
    <path d="M363.29,49.35A19.66,19.66,0,0,1,373.16,52,19.23,19.23,0,0,1,383,68.81a19.49,19.49,0,0,1-2.61,9.82,18.87,18.87,0,0,1-7.1,7.14,19.69,19.69,0,0,1-9.92,2.57,18.48,18.48,0,0,1-13.62-5.68,18.8,18.8,0,0,1-5.64-13.78,19.43,19.43,0,0,1,19.22-19.53Zm.16,8.76a9.57,9.57,0,0,0-7.22,3,10.7,10.7,0,0,0-2.89,7.72,10.91,10.91,0,0,0,2.85,7.84,10.21,10.21,0,0,0,14.49,0,10.82,10.82,0,0,0,2.91-7.81,10.75,10.75,0,0,0-2.85-7.75A9.63,9.63,0,0,0,363.45,58.11Z"/>
    <rect id="矩形_1-12" data-name="矩形 1-12" class="cls-1" width="128" height="128" rx="32.99"/>
    <path class="cls-2"
          d="M96.22,73.46v-19a21.46,21.46,0,0,0-39.3-11.94A21.48,21.48,0,0,0,28.19,62.73V90.64H46V76.84a3.64,3.64,0,1,1,7.27,0v13.8H71.12V66.28a3.64,3.64,0,0,1,7.27,0v.63a19.13,19.13,0,0,0,9.24-7,19.17,19.17,0,0,1-9.24,12v1.62a21.44,21.44,0,0,0,8.48,17.1A22.1,22.1,0,0,0,91,93.11a21.5,21.5,0,0,0,8.8,1.9V77.09A3.62,3.62,0,0,1,96.22,73.46ZM78.39,50.71a4.25,4.25,0,1,1,0-4.38A4.14,4.14,0,0,1,79,48.52,4.19,4.19,0,0,1,78.39,50.71Z"/>
</svg>