<svg width="137" height="32" viewBox="0 0 137 32" fill="none" xmlns="http://www.w3.org/2000/svg">
<g clip-path="url(#clip0_411_6025)">
<path d="M23.7526 0H8.24742C3.6925 0 0 3.6925 0 8.24742V23.7526C0 28.3075 3.6925 32 8.24742 32H23.7526C28.3075 32 32 28.3075 32 23.7526V8.24742C32 3.6925 28.3075 0 23.7526 0Z" fill="#001147"/>
<path d="M24.9319 19.068V14.3159C24.9321 13.1649 24.5622 12.0443 23.8767 11.1196C23.1913 10.1949 22.2267 9.51514 21.1253 9.18068C20.0239 8.84622 18.8442 8.87478 17.7603 9.26216C16.6764 9.64954 15.7458 10.3752 15.1059 11.332C14.4886 11.1096 13.8354 11.0033 13.1793 11.0186C10.2433 11.0779 7.91748 13.5456 7.91748 16.4833V23.3617H12.3711V19.9588C12.3698 19.834 12.3933 19.7102 12.4402 19.5945C12.4872 19.4789 12.5566 19.3737 12.6446 19.2852C12.7325 19.1966 12.8372 19.1264 12.9525 19.0787C13.0678 19.0309 13.1914 19.0066 13.3162 19.007C13.5505 19.0164 13.772 19.1161 13.9344 19.2852C14.0968 19.4544 14.1874 19.6798 14.1872 19.9142V23.365H18.6408V17.3196C18.6395 17.1949 18.6629 17.0713 18.7098 16.9557C18.7566 16.8402 18.8259 16.7351 18.9137 16.6466C19.0015 16.5581 19.1059 16.4878 19.221 16.44C19.3362 16.3921 19.4596 16.3676 19.5843 16.3678C19.8188 16.3768 20.0408 16.4763 20.2035 16.6455C20.3662 16.8147 20.457 17.0403 20.4569 17.2751V17.44C21.3883 17.1123 22.1951 16.5037 22.7661 15.6982C22.6042 16.3276 22.316 16.9176 21.919 17.4323C21.5221 17.9469 21.0246 18.3755 20.4569 18.692V19.0977C20.456 20.5194 21.0197 21.8832 22.024 22.8894C23.0283 23.8956 24.3911 24.4618 25.8127 24.4635V19.9753C25.5767 19.9684 25.3527 19.8698 25.1882 19.7004C25.0238 19.531 24.9318 19.3042 24.9319 19.068V19.068ZM20.4783 13.379C20.3862 13.5337 20.2559 13.6622 20.1 13.7523C19.9441 13.8424 19.7677 13.8911 19.5876 13.8936C19.3073 13.8946 19.0377 13.7859 18.8365 13.5908C18.6352 13.3957 18.5182 13.1297 18.5105 12.8495C18.5055 12.6158 18.5779 12.3871 18.7165 12.1989C18.855 12.0107 19.052 11.8736 19.2766 11.8091C19.5012 11.7445 19.7409 11.756 19.9582 11.8419C20.1756 11.9277 20.3585 12.0831 20.4783 12.2837C20.5787 12.4488 20.6317 12.6382 20.6317 12.8313C20.6317 13.0245 20.5787 13.2139 20.4783 13.379Z" fill="white"/>
<path d="M15.1043 11.327V13.9827C13.5436 14.662 11.7938 14.7712 10.1608 14.2912C8.52781 13.8112 7.11546 12.7725 6.17065 11.3567L8.92199 8.0825C9.17497 7.78182 9.53684 7.59371 9.92828 7.55939C10.3197 7.52507 10.7088 7.64734 11.0102 7.8994L15.1043 11.327Z" fill="#FF702E"/>
</g>
<path d="M38.46 23L43.58 9H46.46L51.58 23H48.86L47.74 19.76H42.28L41.14 23H38.46ZM42.98 17.76H47.04L45 11.94L42.98 17.76ZM52.9234 27.4V13.08H55.2034L55.4834 14.5C55.8034 14.06 56.2234 13.6733 56.7434 13.34C57.2768 13.0067 57.9634 12.84 58.8034 12.84C59.7368 12.84 60.5701 13.0667 61.3034 13.52C62.0368 13.9733 62.6168 14.5933 63.0434 15.38C63.4701 16.1667 63.6834 17.06 63.6834 18.06C63.6834 19.06 63.4701 19.9533 63.0434 20.74C62.6168 21.5133 62.0368 22.1267 61.3034 22.58C60.5701 23.02 59.7368 23.24 58.8034 23.24C58.0568 23.24 57.4034 23.1 56.8434 22.82C56.2834 22.54 55.8301 22.1467 55.4834 21.64V27.4H52.9234ZM58.2634 21C59.0768 21 59.7501 20.7267 60.2834 20.18C60.8168 19.6333 61.0834 18.9267 61.0834 18.06C61.0834 17.1933 60.8168 16.48 60.2834 15.92C59.7501 15.36 59.0768 15.08 58.2634 15.08C57.4368 15.08 56.7568 15.36 56.2234 15.92C55.7034 16.4667 55.4434 17.1733 55.4434 18.04C55.4434 18.9067 55.7034 19.62 56.2234 20.18C56.7568 20.7267 57.4368 21 58.2634 21ZM66.9503 11.54C66.4836 11.54 66.097 11.4 65.7903 11.12C65.497 10.84 65.3503 10.4867 65.3503 10.06C65.3503 9.63333 65.497 9.28667 65.7903 9.02C66.097 8.74 66.4836 8.6 66.9503 8.6C67.417 8.6 67.797 8.74 68.0903 9.02C68.397 9.28667 68.5503 9.63333 68.5503 10.06C68.5503 10.4867 68.397 10.84 68.0903 11.12C67.797 11.4 67.417 11.54 66.9503 11.54ZM65.6703 23V13.08H68.2303V23H65.6703ZM70.5023 23V13.08H72.7623L72.9623 14.76C73.269 14.1733 73.709 13.7067 74.2823 13.36C74.869 13.0133 75.5557 12.84 76.3423 12.84C77.569 12.84 78.5223 13.2267 79.2023 14C79.8823 14.7733 80.2223 15.9067 80.2223 17.4V23H77.6623V17.64C77.6623 16.7867 77.489 16.1333 77.1423 15.68C76.7957 15.2267 76.2557 15 75.5223 15C74.8023 15 74.209 15.2533 73.7423 15.76C73.289 16.2667 73.0623 16.9733 73.0623 17.88V23H70.5023ZM86.6903 23C85.6503 23 84.817 22.7467 84.1903 22.24C83.5636 21.7333 83.2503 20.8333 83.2503 19.54V15.22H81.5503V13.08H83.2503L83.5503 10.42H85.8103V13.08H88.4903V15.22H85.8103V19.56C85.8103 20.04 85.9103 20.3733 86.1103 20.56C86.3236 20.7333 86.6836 20.82 87.1903 20.82H88.4303V23H86.6903ZM94.7944 23.24C93.8344 23.24 92.9677 23.02 92.1944 22.58C91.4344 22.14 90.8277 21.5333 90.3744 20.76C89.9344 19.9733 89.7144 19.0667 89.7144 18.04C89.7144 17.0133 89.941 16.1133 90.3944 15.34C90.8477 14.5533 91.4544 13.94 92.2144 13.5C92.9877 13.06 93.8544 12.84 94.8144 12.84C95.761 12.84 96.6144 13.06 97.3744 13.5C98.1477 13.94 98.7544 14.5533 99.1944 15.34C99.6477 16.1133 99.8744 17.0133 99.8744 18.04C99.8744 19.0667 99.6477 19.9733 99.1944 20.76C98.7544 21.5333 98.1477 22.14 97.3744 22.58C96.601 23.02 95.741 23.24 94.7944 23.24ZM94.7944 21.02C95.461 21.02 96.041 20.7733 96.5344 20.28C97.0277 19.7733 97.2744 19.0267 97.2744 18.04C97.2744 17.0533 97.0277 16.3133 96.5344 15.82C96.041 15.3133 95.4677 15.06 94.8144 15.06C94.1344 15.06 93.5477 15.3133 93.0544 15.82C92.5744 16.3133 92.3344 17.0533 92.3344 18.04C92.3344 19.0267 92.5744 19.7733 93.0544 20.28C93.5477 20.7733 94.1277 21.02 94.7944 21.02ZM106.189 23V9H111.369C112.489 9 113.416 9.18667 114.149 9.56C114.882 9.93333 115.429 10.4467 115.789 11.1C116.149 11.7533 116.329 12.4867 116.329 13.3C116.329 14.0733 116.156 14.7867 115.809 15.44C115.462 16.08 114.922 16.6 114.189 17C113.456 17.3867 112.516 17.58 111.369 17.58H108.749V23H106.189ZM108.749 15.5H111.209C112.102 15.5 112.742 15.3067 113.129 14.92C113.529 14.52 113.729 13.98 113.729 13.3C113.729 12.6067 113.529 12.0667 113.129 11.68C112.742 11.28 112.102 11.08 111.209 11.08H108.749V15.5ZM117.877 23V13.08H120.157L120.397 14.94C120.757 14.3 121.244 13.7933 121.857 13.42C122.484 13.0333 123.217 12.84 124.057 12.84V15.54H123.337C122.777 15.54 122.277 15.6267 121.837 15.8C121.397 15.9733 121.051 16.2733 120.797 16.7C120.557 17.1267 120.437 17.72 120.437 18.48V23H117.877ZM129.991 23.24C129.031 23.24 128.165 23.02 127.391 22.58C126.631 22.14 126.025 21.5333 125.571 20.76C125.131 19.9733 124.911 19.0667 124.911 18.04C124.911 17.0133 125.138 16.1133 125.591 15.34C126.045 14.5533 126.651 13.94 127.411 13.5C128.185 13.06 129.051 12.84 130.011 12.84C130.958 12.84 131.811 13.06 132.571 13.5C133.345 13.94 133.951 14.5533 134.391 15.34C134.845 16.1133 135.071 17.0133 135.071 18.04C135.071 19.0667 134.845 19.9733 134.391 20.76C133.951 21.5333 133.345 22.14 132.571 22.58C131.798 23.02 130.938 23.24 129.991 23.24ZM129.991 21.02C130.658 21.02 131.238 20.7733 131.731 20.28C132.225 19.7733 132.471 19.0267 132.471 18.04C132.471 17.0533 132.225 16.3133 131.731 15.82C131.238 15.3133 130.665 15.06 130.011 15.06C129.331 15.06 128.745 15.3133 128.251 15.82C127.771 16.3133 127.531 17.0533 127.531 18.04C127.531 19.0267 127.771 19.7733 128.251 20.28C128.745 20.7733 129.325 21.02 129.991 21.02Z" fill="#001147"/>
<defs>
<clipPath id="clip0_411_6025">
<rect width="32" height="32" fill="white"/>
</clipPath>
</defs>
</svg>
