<svg width="30" height="30" viewBox="0 0 30 30" fill="none" xmlns="http://www.w3.org/2000/svg">
<g clip-path="url(#clip0_652_44370)">
<path d="M26.9998 0.501787H27.0086L27.0174 0.501479C27.3465 0.489919 27.6745 0.546231 27.981 0.66691C28.2875 0.78759 28.5658 0.970053 28.7987 1.20294C29.0316 1.43583 29.214 1.71417 29.3347 2.02062C29.4554 2.32707 29.5117 2.65508 29.5001 2.98424L29.4998 2.99301V3.00179V27.0018V27.0106L29.5001 27.0193C29.5117 27.3485 29.4554 27.6765 29.3347 27.983C29.214 28.2894 29.0316 28.5677 28.7987 28.8006C28.5658 29.0335 28.2875 29.216 27.981 29.3367C27.6745 29.4573 27.3465 29.5137 27.0174 29.5021L27.0086 29.5018H26.9998H2.99983H2.99106L2.98228 29.5021C2.65313 29.5137 2.32512 29.4573 2.01867 29.3367C1.71221 29.216 1.43388 29.0335 1.20099 28.8006C0.9681 28.5677 0.785636 28.2894 0.664957 27.983C0.544278 27.6765 0.487966 27.3485 0.499526 27.0193L0.499834 27.0106V27.0018V3.00179V2.99301L0.499526 2.98424C0.487966 2.65508 0.544278 2.32707 0.664957 2.02062C0.785636 1.71417 0.9681 1.43583 1.20099 1.20294C1.43388 0.970053 1.71221 0.787589 2.01867 0.66691C2.32512 0.546231 2.65313 0.489919 2.98228 0.501479L2.99106 0.501787H2.99983H26.9998Z" fill="#E8EFFE" stroke="#E8EFFE"/>
<rect x="12.2227" y="23.6289" width="5.53122" height="4.14832" fill="#F9D6C2"/>
<ellipse cx="22.248" cy="17.0625" rx="1.0371" ry="1.72847" fill="#FFE6D8"/>
<ellipse cx="7.72851" cy="17.0625" rx="1.0371" ry="1.72847" fill="#FFE6D8"/>
<ellipse cx="14.9882" cy="16.7166" rx="7.60543" ry="8.29663" fill="#FFE6D8"/>
<path d="M10 11.5C8.5 11.5 8.30468 13.7205 8.07421 15.3337L7.72851 10.494C7.26757 10.494 6.3457 10.0792 6.3457 8.41985C6.3457 6.76052 7.03711 6.34569 7.38281 6.34569C9.11131 6.23046 13.1214 6 15.3339 6C18.0995 6 19.1366 6 20.1738 7.38277C21.0034 8.48899 20.289 9.91786 19.8281 10.494C16.832 10.494 12.3662 11.5 10 11.5Z" fill="#333333" stroke="#333333" stroke-width="0.691394"/>
<path d="M21.9023 9.11089C23.2851 9.94055 22.709 13.144 22.248 14.642L19.1367 9.8028C19.252 9.57234 20.5195 8.28123 21.9023 9.11089Z" fill="#333333" stroke="#333333" stroke-width="0.691394"/>
<path fill-rule="evenodd" clip-rule="evenodd" d="M14.9891 27.7778C16.5165 27.7778 17.7547 26.8492 17.7547 25.7036C17.7547 25.536 17.7282 25.3729 17.6781 25.2168C21.3287 25.7883 23.9774 27.4926 23.9774 29.5063C23.9774 31.9882 19.9533 34.0003 14.9892 34.0003C10.0251 34.0003 6.00098 31.9882 6.00098 29.5063C6.00098 27.4926 8.64969 25.7883 12.3001 25.2168C12.2501 25.373 12.2235 25.536 12.2235 25.7036C12.2235 26.8492 13.4617 27.7778 14.9891 27.7778Z" fill="#1861F2"/>
</g>
<defs>
<clipPath id="clip0_652_44370">
<rect width="30" height="30" fill="white"/>
</clipPath>
</defs>
</svg>
