<svg width="51" height="51" viewBox="0 0 51 51" fill="none" xmlns="http://www.w3.org/2000/svg">
<rect x="1" y="0.888672" width="49" height="49" rx="3.5" fill="#FAFAFA"/>
<path d="M24.42 34.0887C25.9 34.0887 26.64 33.3687 26.64 31.9687V23.7887H34.16V21.7287H16.92V23.7887H24.52V31.4287C24.52 31.9287 24.24 32.1887 23.7 32.1887C22.98 32.1887 22.2 32.1487 21.4 32.0687L21.84 34.0887H24.42ZM19.74 25.6287C19.12 27.9087 18.06 30.0687 16.54 32.1087L18.36 33.2487C19.84 31.2487 21 28.8487 21.8 26.0887L19.74 25.6287ZM31 25.3687L29.12 26.0087C30.36 28.0487 31.52 30.4087 32.56 33.0887L34.46 32.2287C33.5 29.7887 32.34 27.5087 31 25.3687ZM18.76 16.6887V18.7287H32.38V16.6887H18.76Z" fill="#999999"/>
<rect x="1" y="0.888672" width="49" height="49" rx="3.5" stroke="#FAFAFA"/>
</svg>
