<svg width="100" height="32" viewBox="0 0 100 32" fill="none" xmlns="http://www.w3.org/2000/svg">
<g clip-path="url(#clip0_514_876)">
<path d="M23.7526 0H8.24742C3.6925 0 0 3.6925 0 8.24742V23.7526C0 28.3075 3.6925 32 8.24742 32H23.7526C28.3075 32 32 28.3075 32 23.7526V8.24742C32 3.6925 28.3075 0 23.7526 0Z" fill="#001147"/>
<path d="M24.055 18.3664V13.6159C24.055 12.4652 23.6851 11.345 22.9999 10.4205C22.3147 9.49608 21.3504 8.81642 20.2494 8.48183C19.1484 8.14725 17.969 8.17546 16.8853 8.56232C15.8016 8.94918 14.8709 9.67419 14.2307 10.6303C13.4202 10.3408 12.552 10.2502 11.6992 10.3661C10.8464 10.482 10.0339 10.801 9.33008 11.2963C8.62625 11.7916 8.05166 12.4487 7.65468 13.2123C7.25769 13.9759 7.04992 14.8237 7.04883 15.6844V22.6617H11.5024V19.2093C11.5164 18.9782 11.618 18.761 11.7866 18.6023C11.9552 18.4436 12.1781 18.3552 12.4097 18.3552C12.6412 18.3552 12.8641 18.4436 13.0327 18.6023C13.2013 18.761 13.3029 18.9782 13.3169 19.2093V22.6617H17.7705V16.5701C17.7844 16.339 17.8861 16.1219 18.0547 15.9631C18.2233 15.8044 18.4461 15.716 18.6777 15.716C18.9093 15.716 19.1321 15.8044 19.3007 15.9631C19.4693 16.1219 19.571 16.339 19.5849 16.5701V16.7351C20.516 16.4067 21.3226 15.7982 21.8942 14.9932C21.732 15.6228 21.4437 16.2129 21.0468 16.7278C20.6499 17.2427 20.1525 17.6717 19.5849 17.9887V18.3928C19.5844 19.2209 19.7756 20.0378 20.1437 20.7796C20.5117 21.5213 21.0465 22.1678 21.7061 22.6683C22.0272 22.9108 22.3741 23.1171 22.7404 23.2835C23.4357 23.5962 24.1899 23.7565 24.9523 23.7536V19.2736C24.7134 19.271 24.4852 19.1743 24.3172 19.0044C24.1492 18.8346 24.055 18.6053 24.055 18.3664ZM19.6014 12.6774C19.4691 12.895 19.2623 13.0574 19.0195 13.1344C18.7767 13.2115 18.5142 13.198 18.2806 13.0964C18.0469 12.9948 17.858 12.8121 17.7487 12.582C17.6394 12.3518 17.6172 12.0899 17.6861 11.8447C17.755 11.5994 17.9104 11.3874 18.1235 11.2479C18.3367 11.1084 18.5931 11.0508 18.8455 11.0857C19.0978 11.1207 19.329 11.2459 19.4961 11.4381C19.6633 11.6303 19.7552 11.8766 19.7548 12.1314C19.7534 12.3243 19.6992 12.5131 19.5981 12.6774H19.6014Z" fill="white"/>
</g>
<path d="M43.5092 8.63857H46.2686L51.7681 23.09H48.9406L47.8232 20.1132H41.9934L40.8275 23.09H38L43.5092 8.63857ZM44.9083 12.47L43.0039 17.4312H46.803L44.9083 12.47Z" fill="#001147"/>
<path d="M56.2279 12.4012V13.5801C56.7072 13.0955 57.2254 12.732 57.7825 12.4897C58.3395 12.2473 58.9355 12.1262 59.5703 12.1262C60.95 12.1262 62.1224 12.6534 63.0876 13.7079C64.0528 14.7623 64.5353 16.1148 64.5353 17.7653C64.5353 19.3568 64.0366 20.6896 63.039 21.7637C62.0415 22.8313 60.8593 23.365 59.4926 23.365C58.8837 23.365 58.3169 23.257 57.7922 23.0408C57.2675 22.8182 56.7461 22.4579 56.2279 21.9602V27H53.5947V12.4012H56.2279ZM59.0165 14.6019C58.1808 14.6019 57.4878 14.89 56.9372 15.4664C56.3866 16.0427 56.1113 16.7959 56.1113 17.726C56.1113 18.6756 56.3866 19.4452 56.9372 20.0346C57.4878 20.6175 58.1808 20.909 59.0165 20.909C59.8262 20.909 60.5063 20.611 61.0569 20.015C61.614 19.419 61.8925 18.6593 61.8925 17.7358C61.8925 16.8189 61.6204 16.0689 61.0763 15.486C60.5322 14.8966 59.8456 14.6019 59.0165 14.6019Z" fill="#001147"/>
<path d="M67.7709 8C68.2373 8 68.6356 8.17029 68.966 8.51086C69.3028 8.85143 69.4712 9.26405 69.4712 9.74871C69.4712 10.2268 69.3061 10.6362 68.9757 10.9767C68.6454 11.3108 68.2502 11.4778 67.7903 11.4778C67.3175 11.4778 66.9126 11.3075 66.5758 10.9669C66.2454 10.6198 66.0802 10.2006 66.0802 9.70941C66.0802 9.23785 66.2454 8.83506 66.5758 8.50103C66.9061 8.16701 67.3045 8 67.7709 8ZM66.4397 12.4012H69.102V23.09H66.4397V12.4012Z" fill="#001147"/>
<path d="M71.5117 12.4012H74.1545V13.4917C74.7569 12.9809 75.3011 12.6272 75.7869 12.4307C76.2792 12.2277 76.7812 12.1262 77.2929 12.1262C78.3423 12.1262 79.2329 12.4962 79.9649 13.2363C80.5803 13.865 80.8879 14.7951 80.8879 16.0264V23.09H78.2645V18.4038C78.2645 17.1267 78.2062 16.2785 78.0896 15.8594C77.9795 15.4402 77.782 15.1225 77.4969 14.9064C77.2184 14.6837 76.8719 14.5724 76.4573 14.5724C75.9197 14.5724 75.4565 14.7558 75.0679 15.1225C74.6857 15.4828 74.4201 15.9838 74.2711 16.6256C74.1934 16.9597 74.1545 17.6834 74.1545 18.7968V23.09H71.5117V12.4012Z" fill="#001147"/>
<path d="M83.7834 8.46174H86.4263V12.4012H88.0003V14.7099H86.4263V23.09H83.7834V14.7099H82.4231V12.4012H83.7834V8.46174Z" fill="#001147"/>
<path d="M94.3937 12.1262C95.3912 12.1262 96.3272 12.3783 97.2017 12.8826C98.0826 13.3869 98.7693 14.0714 99.2616 14.9359C99.7539 15.8004 100 16.7337 100 17.7358C100 18.7444 99.7506 19.6875 99.2518 20.5651C98.7595 21.4428 98.0859 22.1305 97.2308 22.6282C96.3758 23.1194 95.4333 23.365 94.4034 23.365C92.8876 23.365 91.5921 22.8214 90.5168 21.7342C89.448 20.6405 88.9137 19.3142 88.9137 17.7554C88.9137 16.0853 89.5193 14.6936 90.7306 13.5801C91.7929 12.6108 93.0139 12.1262 94.3937 12.1262ZM94.4325 14.651C93.6099 14.651 92.9233 14.9424 92.3727 15.5253C91.8286 16.1017 91.5565 16.8418 91.5565 17.7456C91.5565 18.6756 91.8253 19.4288 92.363 20.0052C92.9071 20.5815 93.5937 20.8697 94.4228 20.8697C95.2519 20.8697 95.9418 20.5782 96.4924 19.9953C97.043 19.4124 97.3183 18.6625 97.3183 17.7456C97.3183 16.8287 97.0462 16.0853 96.5021 15.5155C95.9645 14.9392 95.2746 14.651 94.4325 14.651Z" fill="#001147"/>
<defs>
<clipPath id="clip0_514_876">
<rect width="32" height="32" fill="white"/>
</clipPath>
</defs>
</svg>
