<svg id="图层_1" data-name="图层 1" xmlns="http://www.w3.org/2000/svg" viewBox="0 0 590.87 122.66"><defs><style>.cls-1{fill:#24539c;}</style></defs><title>apinto</title><path class="cls-1" d="M100.82,0A52.78,52.78,0,0,0,50.35,37.58H34a6.73,6.73,0,0,0-6.74,6.74h0A6.74,6.74,0,0,0,34,51.06H48.17c0,.54,0,1.08,0,1.63V80.15H34a6.74,6.74,0,0,0-6.74,6.75h0A6.74,6.74,0,0,0,34,93.64H48.13v17.75A11.28,11.28,0,0,0,59.4,122.66h82.84a11.28,11.28,0,0,0,11.27-11.27V52.69A52.75,52.75,0,0,0,100.82,0Zm-.22,57.3a6.24,6.24,0,1,1-6.24-6.24A6.23,6.23,0,0,1,100.6,57.3ZM56.92,111.39V93.64h.63a6.74,6.74,0,0,0,6.74-6.74h0a6.75,6.75,0,0,0-6.74-6.75h-.63V52.69c0-.55,0-1.09,0-1.63h.59a6.74,6.74,0,0,0,6.74-6.74h0a6.73,6.73,0,0,0-4.79-6.45A44.11,44.11,0,0,1,86.36,11.25C81.68,15.8,77.84,23.36,77.84,36V93.75a9.83,9.83,0,0,0,7.59,9.58l44.94,10.54h-71A2.48,2.48,0,0,1,56.92,111.39Z"/><path class="cls-1" d="M37,65.87a6.74,6.74,0,0,0-6.74-6.74H6.74a6.74,6.74,0,0,0,0,13.48H30.28A6.74,6.74,0,0,0,37,65.87Z"/><path class="cls-1" d="M217.49,27.45h14.2L260,101H245.43l-5.75-15.15h-30l-6,15.15H189.13ZM224.68,47,214.81,72.2h19.68Z"/><path class="cls-1" d="M270.76,27.45h14.85q12.06,0,17.38,2.22a17.71,17.71,0,0,1,8.4,7.21,22.21,22.21,0,0,1,3.08,11.92,20,20,0,0,1-4,12.8,20.83,20.83,0,0,1-10.92,7.1c-2.71.77-7.62,1.15-14.76,1.15V101h-14Zm14,28.75h4.45a24.08,24.08,0,0,0,7.3-.75A6.48,6.48,0,0,0,299.74,53a7.32,7.32,0,0,0,1.18-4.19,6.69,6.69,0,0,0-3.31-6.22c-1.6-1-4.56-1.46-8.9-1.46h-3.95Z"/><path class="cls-1" d="M327.17,27.45h13.9V101h-13.9Z"/><path class="cls-1" d="M356.87,27.45H370.3l31.48,48.4V27.45h14V101H402.31L370.87,52.75V101h-14Z"/><path class="cls-1" d="M425.33,27.45H466v13.8h-13.4V101h-14.2V41.25H425.33Z"/><path class="cls-1" d="M510.31,25.6a36.55,36.55,0,0,1,26.85,11.3,37.59,37.59,0,0,1,11.23,27.55,37.2,37.2,0,0,1-11.08,27.26,36.52,36.52,0,0,1-26.9,11.15q-16.56,0-27.52-11.45A38,38,0,0,1,471.94,64.2,38.18,38.18,0,0,1,477,44.8a38.46,38.46,0,0,1,33.27-19.2Zm-.15,13.7A23.12,23.12,0,0,0,493,46.4Q486,53.51,486,64.45q0,12.21,8.76,19.31a24,24,0,0,0,15.61,5.55,22.76,22.76,0,0,0,17-7.21,24.41,24.41,0,0,0,7-17.75,24.54,24.54,0,0,0-7.06-17.77A23,23,0,0,0,510.16,39.3Z"/></svg>